<svg xmlns="http://www.w3.org/2000/svg" viewBox="0 0 283.46 283.46"><g id="Layer_2" data-name="Layer 2"><g id="Layer_2-2" data-name="Layer 2"><path fill="#fff" d="M184.12,53.05H98.63A43.47,43.47,0,0,0,55.21,96.47v88.42a43.47,43.47,0,0,0,43.42,43.42h85.49a43.47,43.47,0,0,0,43.42-43.42V96.47A43.47,43.47,0,0,0,184.12,53.05ZM141.73,194.56a54,54,0,1,1,54-54A54.06,54.06,0,0,1,141.73,194.56Zm55.56-97a12.8,12.8,0,1,1,12.8-12.8A12.81,12.81,0,0,1,197.29,97.6Z"/><path fill="#fff" d="M141.73,104.68a35.88,35.88,0,1,0,35.88,35.88A35.93,35.93,0,0,0,141.73,104.68Z"/><path fill="#fff" d="M224.76,0H58.7A58.7,58.7,0,0,0,0,58.7V224.76a58.7,58.7,0,0,0,58.7,58.7H224.76a58.7,58.7,0,0,0,58.7-58.7V58.7A58.7,58.7,0,0,0,224.76,0Zm20.89,184.89a61.61,61.61,0,0,1-61.53,61.54H98.63A61.61,61.61,0,0,1,37.1,184.89V96.47A61.6,61.6,0,0,1,98.63,34.94h85.49a61.6,61.6,0,0,1,61.53,61.53Z"/></g></g></svg>