<svg xmlns="http://www.w3.org/2000/svg" viewBox="0 0 482.52 102.66"><defs><style>.cls-1{fill:#fff;}</style></defs><g id="Layer_2" data-name="Layer 2"><g id="Layer_1-2" data-name="Layer 1"><path class="cls-1" d="M32.38,29.29l-2.49-1.91,2-2.4a13.3,13.3,0,0,0,3.2-9.08A14.82,14.82,0,0,0,20.3,1.1H0V61.8H21.5A18.12,18.12,0,0,0,39.6,43.7,17.37,17.37,0,0,0,32.38,29.29ZM5.1,6.2H20.3a9.7,9.7,0,0,1,0,19.4H5.1ZM21.5,56.7H5.1v-26H21.5a13,13,0,0,1,0,26Z"/><polygon class="cls-1" points="94 6.2 94 1.1 66.7 1.1 66.7 6.2 77.8 6.2 77.8 56.7 66.7 56.7 66.7 61.8 94 61.8 94 56.7 82.9 56.7 82.9 6.2 94 6.2"/><polygon class="cls-1" points="150.8 56.7 129.52 56.7 149.72 1.1 121.2 1.1 121.2 6.2 142.38 6.2 122.18 61.8 150.8 61.8 150.8 56.7"/><path class="cls-1" d="M216.4,61.8V22.6C216.4,8.87,208.83,0,197.1,0s-19.2,8.87-19.2,22.6V61.8H183V39.6h28.2V61.8ZM183,34.5V22.6c0-12.92,7.6-17.5,14.1-17.5s14.1,4.58,14.1,17.5V34.5Z"/><polygon class="cls-1" points="283.1 61.8 283.1 1.1 279.1 1.1 279.1 51.31 248.22 1.1 244.6 1.1 244.6 61.8 248.6 61.8 248.6 11.56 279.38 61.8 283.1 61.8"/><path class="cls-1" d="M323.9,1.1H311.3V61.8h12.6c14.89,0,27-13.59,27-30.3S338.79,1.1,323.9,1.1Zm0,55.6h-7.5V6.2h7.5c11.41,0,20.7,11.35,20.7,25.3S335.31,56.7,323.9,56.7Z"/><polygon class="cls-1" points="405.3 6.2 405.3 1.1 378 1.1 378 61.8 405.3 61.8 405.3 56.7 383.1 56.7 383.1 30.7 405.3 30.7 405.3 25.6 383.1 25.6 383.1 6.2 405.3 6.2"/><path class="cls-1" d="M467.43,61.8h6.23L457.3,39l3.17-1.57a19,19,0,0,0,10.43-17A19.27,19.27,0,0,0,451.7,1.1H433.6V61.8h5.1V39.6h12.73ZM438.7,6.2h13a14.15,14.15,0,0,1,0,28.3h-13Z"/><path class="cls-1" d="M41.24,29.29l-2.49-1.91,2-2.4A13.3,13.3,0,0,0,44,15.9,14.82,14.82,0,0,0,29.16,1.1H8.86V61.8h21.5a18.12,18.12,0,0,0,18.1-18.1A17.37,17.37,0,0,0,41.24,29.29ZM14,6.2h15.2a9.7,9.7,0,0,1,0,19.4H14Zm16.4,50.5H14v-26h16.4a13,13,0,0,1,0,26Z"/><polygon class="cls-1" points="102.86 6.2 102.86 1.1 75.56 1.1 75.56 6.2 86.66 6.2 86.66 56.7 75.56 56.7 75.56 61.8 102.86 61.8 102.86 56.7 91.76 56.7 91.76 6.2 102.86 6.2"/><polygon class="cls-1" points="159.66 56.7 138.38 56.7 158.58 1.1 130.06 1.1 130.06 6.2 151.24 6.2 131.04 61.8 159.66 61.8 159.66 56.7"/><path class="cls-1" d="M225.26,61.8V22.6C225.26,8.87,217.69,0,206,0s-19.2,8.87-19.2,22.6V61.8h5.1V39.6h28.2V61.8Zm-33.4-27.3V22.6c0-12.92,7.6-17.5,14.1-17.5s14.1,4.58,14.1,17.5V34.5Z"/><polygon class="cls-1" points="291.96 61.8 291.96 1.1 287.96 1.1 287.96 51.31 257.08 1.1 253.46 1.1 253.46 61.8 257.46 61.8 257.46 11.56 288.24 61.8 291.96 61.8"/><path class="cls-1" d="M332.76,1.1h-12.6V61.8h12.6c14.89,0,27-13.59,27-30.3S347.65,1.1,332.76,1.1Zm0,55.6h-7.5V6.2h7.5c11.41,0,20.7,11.35,20.7,25.3S344.17,56.7,332.76,56.7Z"/><polygon class="cls-1" points="414.16 6.2 414.16 1.1 386.86 1.1 386.86 61.8 414.16 61.8 414.16 56.7 391.96 56.7 391.96 30.7 414.16 30.7 414.16 25.6 391.96 25.6 391.96 6.2 414.16 6.2"/><path class="cls-1" d="M476.29,61.8h6.23L466.16,39l3.17-1.57a19,19,0,0,0,10.43-17,19.27,19.27,0,0,0-19.2-19.3h-18.1V61.8h5.1V39.6h12.73ZM447.56,6.2h13a14.15,14.15,0,0,1,0,28.3h-13Z"/><path class="cls-1" d="M2.1,100.28C.35,98.5,0,96.22,0,92.27V78.19H3.29v14.5c0,2.45.21,4,1.3,5.39s2.83,1.75,4.76,1.75A5.74,5.74,0,0,0,14.07,98c1.09-1.29,1.3-2.87,1.3-5.28V78.19h3.18V92.27c0,3.92-.31,6.23-2.1,8-2,2-4.62,2.38-7.17,2.38S4,102.28,2.1,100.28Z"/><path class="cls-1" d="M40.88,102.17,29,83.34h-.11v18.83h-3v-24h3.71L41.2,96.85h.1V78.19h3.05v24Z"/><path class="cls-1" d="M52.11,102.17v-24h3.3v24Z"/><path class="cls-1" d="M63.17,102.17v-24H77.53V81H66.46v7.49H76.58v2.7H66.46v8.12H78.09v2.83Z"/><path class="cls-1" d="M99.54,102.17l-9-11.06-2.8,3v8H84.49v-24h3.29V90l10.64-11.8h4.2L92.89,88.77l10.75,13.4Z"/><path class="cls-1" d="M117.84,102.17v-24H132.2V81H121.13v7.49h10.12v2.7H121.13v8.12h11.62v2.83Z"/><path class="cls-1" d="M154.21,102.17,142.27,83.34h-.1v18.83h-3v-24h3.71l11.66,18.66h.1V78.19h3.05v24Z"/><path class="cls-1" d="M190.36,102.17V91.25H178.43v10.92h-3.29v-24h3.29V88.41h11.93V78.19h3.3v24Z"/><path class="cls-1" d="M216.4,102.17l-2.34-6.47H203.87l-2.38,6.47h-3.36l8.89-24h4l8.89,24ZM209,81.52h-.11L204.75,93h8.36Z"/><path class="cls-1" d="M239.47,102.17,227.53,83.34h-.1v18.83h-3v-24h3.71l11.66,18.66h.1V78.19h3v24Z"/><path class="cls-1" d="M267.5,99.79c-2.17,1.79-5.21,2.38-8.19,2.38H250.7v-24h8.68a12.6,12.6,0,0,1,8.09,2.38c2.34,1.89,3.61,5,3.61,9.6S269.85,97.9,267.5,99.79ZM259.45,81H254V99.41h5.36c5.74,0,8.29-2.91,8.29-9.21C267.64,84.18,264.91,81,259.45,81Z"/><path class="cls-1" d="M285.35,102.66a9.65,9.65,0,0,1-7.21-2.69c-2.27-2.31-3.08-5.64-3.08-9.77,0-4,1.12-8,4.2-10.36,2.31-1.75,5.08-2.14,8.12-2.14,2,0,4.06.18,6.16.32v3a54.19,54.19,0,0,0-6.05-.35c-6.3,0-9,3-9,9.63,0,6,2.38,9.59,7.42,9.59a21.19,21.19,0,0,0,5.49-.91V92.16h-6.12V89.53h9v11.56A36.35,36.35,0,0,1,285.35,102.66Z"/><path class="cls-1" d="M300.79,102.17v-24h14.35V81H304.08v7.49h10.11v2.7H304.08v8.12H315.7v2.83Z"/><path class="cls-1" d="M343.17,102.17V83.24h-.1l-7.25,18.93h-3.46l-7.28-18.93H325v18.93H322.1v-24h4.34l7.84,20.38h.11l7.73-20.38h4.31v24Z"/><path class="cls-1" d="M369.18,102.17l-2.35-6.47H356.65l-2.39,6.47H350.9l8.9-24h4l8.89,24Zm-7.39-20.65h-.1L357.52,93h8.37Z"/><path class="cls-1" d="M392.17,102.17l-2.34-6.47H379.64l-2.38,6.47H373.9l8.89-24h4l8.89,24Zm-7.38-20.65h-.11L380.52,93h8.36Z"/><path class="cls-1" d="M415.24,102.17l-9-11.06-2.8,3v8h-3.29v-24h3.29V90l10.64-11.8h4.2l-9.73,10.58,10.74,13.4Z"/><path class="cls-1" d="M428.19,102.17V81H420V78.19h19.78V81h-8.23v21.14Z"/></g></g></svg>